HIERARCHY
ROOT SpineBase
{
  OFFSET 0.000000 0.000000 0.000000
  CHANNELS 6 Xposition Yposition Zposition Zrotation Xrotation Yrotation
  JOINT SpineMid
  {
    OFFSET 0.000000 29.282390 0.000000
    CHANNELS 3 Zrotation Xrotation Yrotation
    JOINT SpineShoulder
    {
      OFFSET -0.028771 21.805769 -1.031490
      CHANNELS 3 Zrotation Xrotation Yrotation
      JOINT Neck
      {
        OFFSET -0.027894 7.237749 -0.700605
        CHANNELS 3 Zrotation Xrotation Yrotation
        JOINT Head
        {
          OFFSET -2.288416 11.971426 4.706191
          CHANNELS 3 Zrotation Xrotation Yrotation
          End Site
          {
            OFFSET 0 0 0
          }
        }
      }
      JOINT ShoulderLeft
      {
        OFFSET -11.351457 -4.564775 9.086630
        CHANNELS 3 Zrotation Xrotation Yrotation
        JOINT ElbowLeft
        {
          OFFSET -2.273839 -27.615915 -5.962682
          CHANNELS 3 Zrotation Xrotation Yrotation
          JOINT WristLeft
          {
            OFFSET -8.096527 -18.693767 -3.033245
            CHANNELS 3 Zrotation Xrotation Yrotation
            JOINT HandLeft
            {
              OFFSET -2.935836 -5.858264 -0.768597
              CHANNELS 3 Zrotation Xrotation Yrotation
              JOINT HandTipLeft
              {
                OFFSET -1.085836 -3.578084 1.156578
                CHANNELS 3 Zrotation Xrotation Yrotation
                End Site
                {
                  OFFSET 0 0 0
                }
              }
              JOINT ThumbLeft
              {
                OFFSET -1.962925 1.538057 1.323105
                CHANNELS 3 Zrotation Xrotation Yrotation
                End Site
                {
                  OFFSET 0 0 0
                }
              }
            }
          }
        }
      }
      JOINT ShoulderRight
      {
        OFFSET 8.219057 -2.189031 -11.804877
        CHANNELS 3 Zrotation Xrotation Yrotation
        JOINT ElbowRight
        {
          OFFSET 2.626339 -24.640244 -1.902697
          CHANNELS 3 Zrotation Xrotation Yrotation
          JOINT WristRight
          {
            OFFSET -16.404691 10.072281 -8.151450
            CHANNELS 3 Zrotation Xrotation Yrotation
            JOINT HandRight
            {
              OFFSET -9.516875 6.576332 -4.923325
              CHANNELS 3 Zrotation Xrotation Yrotation
              JOINT HandTipRight
              {
                OFFSET -2.376592 4.532282 -2.743054
                CHANNELS 3 Zrotation Xrotation Yrotation
                End Site
                {
                  OFFSET 0 0 0
                }
              }
              JOINT ThumbRight
              {
                OFFSET -1.240935 1.016861 -1.538023
                CHANNELS 3 Zrotation Xrotation Yrotation
                End Site
                {
                  OFFSET 0 0 0
                }
              }
            }
          }
        }
      }
    }
  }
  JOINT HipLeft
  {
    OFFSET -4.379157 0.352328 2.682561
    CHANNELS 3 Zrotation Xrotation Yrotation
    JOINT KneeLeft
    {
      OFFSET 1.112853 -33.376381 -1.656983
      CHANNELS 3 Zrotation Xrotation Yrotation
      JOINT AnkleLeft
      {
        OFFSET 6.153245 -31.093374 6.032217
        CHANNELS 3 Zrotation Xrotation Yrotation
        JOINT FootLeft
        {
          OFFSET -6.095659 -2.694321 -8.955362
          CHANNELS 3 Zrotation Xrotation Yrotation
          End Site
          {
            OFFSET 0 0 0
          }
        }
      }
    }
  }
  JOINT HipRight
  {
    OFFSET 4.310951 1.774230 -8.912951
    CHANNELS 3 Zrotation Xrotation Yrotation
    JOINT KneeRight
    {
      OFFSET 4.447347 -30.317203 0.362653
      CHANNELS 3 Zrotation Xrotation Yrotation
      JOINT AnkleRight
      {
        OFFSET 6.453388 -32.885154 1.336034
        CHANNELS 3 Zrotation Xrotation Yrotation
        JOINT FootRight
        {
          OFFSET -2.815294 -6.325010 3.655599
          CHANNELS 3 Zrotation Xrotation Yrotation
          End Site
          {
            OFFSET 0 0 0
          }
        }
      }
    }
  }
}
MOTION
Frames: 9
Frame Time: 0.033333
10.261101 69.945335 342.922110 -0.000000 0.000000 53.150743 -0.000000 0.000000 -53.150743 -0.000000 0.000000 0.000000 -0.000000 0.000000 0.000000 0.000000 0.000000 0.000000 -0.000000 0.000000 0.000000 -0.000000 0.000000 0.000000 -0.000000 0.000000 0.000000 -0.000000 0.000000 0.000000 0.000000 0.000000 0.000000 0.000000 0.000000 0.000000 -0.000000 0.000000 0.000000 -0.000000 0.000000 0.000000 -0.000000 0.000000 0.000000 -0.000000 0.000000 0.000000 0.000000 0.000000 0.000000 0.000000 0.000000 0.000000 -0.000000 0.000000 -53.150743 -0.000000 0.000000 0.000000 -0.000000 0.000000 0.000000 0.000000 0.000000 0.000000 -0.000000 0.000000 -53.150743 -0.000000 0.000000 0.000000 -0.000000 0.000000 0.000000 0.000000 0.000000 0.000000
10.127996 69.895950 342.884883 -0.117995 0.051376 47.210828 0.042452 -0.121491 -47.210730 -0.000000 0.000000 0.000000 -0.000000 0.000000 0.000000 0.000000 0.000000 0.000000 -0.289328 0.970137 -0.014931 2.449612 0.623311 -1.020221 3.149841 -0.871447 0.082122 -5.518090 -3.469885 1.730199 0.000000 0.000000 0.000000 0.000000 0.000000 0.000000 0.526500 0.638796 0.024475 -0.839990 0.006639 0.771956 1.361418 -2.519885 -2.601366 1.723982 3.383116 4.235919 0.000000 0.000000 0.000000 0.000000 0.000000 0.000000 -1.460950 -1.858864 -47.325561 -0.257951 2.282833 0.093985 -0.000000 0.000000 0.000000 0.000000 0.000000 0.000000 1.768302 0.873035 -46.931942 -0.452390 -1.939809 -0.297767 0.094452 1.789447 -0.750481 0.000000 0.000000 0.000000
9.998322 69.868115 342.863654 -0.200566 0.123325 41.256713 0.069454 -0.224971 -41.256361 0.004815 1.163596 0.004907 -0.004916 -1.163595 -0.005005 0.000000 0.000000 0.000000 -0.520197 0.709510 -0.049804 4.486111 0.478180 -1.580915 4.988377 -1.629136 0.406937 -9.210729 -5.071466 2.575140 0.000000 0.000000 0.000000 0.000000 0.000000 0.000000 1.049347 0.345787 0.081840 -1.400563 -0.341542 1.541356 2.077529 -5.139817 -5.602552 3.613387 7.157405 8.697509 0.000000 0.000000 0.000000 0.000000 0.000000 0.000000 -2.288802 -3.653641 -41.498696 0.233420 4.539850 0.348406 -0.738005 -0.405161 -0.226099 0.000000 0.000000 0.000000 2.972723 1.854795 -40.777982 -0.842603 -3.470253 -0.545212 0.386331 3.447651 -1.348797 0.000000 0.000000 0.000000
9.872079 69.861831 342.858425 -0.247992 0.215719 36.072571 0.654285 0.490102 -36.071808 0.025793 0.630850 0.007208 0.960678 -1.916512 -0.417584 0.000000 0.000000 0.000000 -0.696355 1.080968 -0.087641 6.111938 -0.389491 -1.673770 5.882434 -2.259109 0.803172 -11.578675 -5.007428 2.747772 0.000000 0.000000 0.000000 0.000000 0.000000 0.000000 1.563842 0.995633 0.157435 -1.699483 -1.032935 2.324977 2.028518 -7.838576 -9.127069 5.511783 11.175107 13.221596 0.000000 0.000000 0.000000 0.000000 0.000000 0.000000 -2.629074 -5.230019 -36.424281 0.311025 6.284705 0.495656 -1.050367 -0.720892 -0.353260 0.000000 0.000000 0.000000 3.674621 2.741281 -35.461043 -1.162788 -4.580859 -0.733492 0.863983 5.014324 -1.823931 0.000000 0.000000 0.000000
9.749266 69.877097 342.869195 -0.260529 0.328445 32.482802 0.738757 0.647494 -32.480911 0.023566 0.744132 0.009138 1.483543 -2.304789 -0.607253 0.000000 0.000000 0.000000 -0.816533 1.462267 -0.133375 7.346482 -1.957281 -1.295741 6.026270 -2.809719 1.224304 -12.852482 -3.309434 2.311955 0.000000 0.000000 0.000000 0.000000 0.000000 0.000000 2.069568 1.977492 0.250240 -1.743967 -2.061379 3.147628 1.048714 -10.544242 -13.313181 7.243324 15.171105 17.640109 0.000000 0.000000 0.000000 0.000000 0.000000 0.000000 -2.717365 -6.453522 -32.913564 0.360819 7.692752 0.634011 -1.324420 -1.110302 -0.489714 0.000000 0.000000 0.000000 4.009158 3.326920 -31.791447 -1.407306 -5.268155 -0.855988 1.525834 6.524189 -2.197287 0.000000 0.000000 0.000000
9.629885 69.913915 342.895964 -0.238409 0.461399 31.090266 0.792308 0.755406 -31.086799 0.016022 0.809862 0.010762 2.112910 -2.568609 -0.823548 0.000000 0.000000 0.000000 -0.880809 1.852666 -0.186805 8.220450 -4.227459 -0.443511 5.474217 -3.388365 1.726807 -13.042106 0.172842 1.205745 0.000000 0.000000 0.000000 0.000000 0.000000 0.000000 2.564428 3.301038 0.355697 -1.531402 -3.423526 4.043339 -1.060709 -13.108311 -18.301468 8.671050 18.798443 21.820236 0.000000 0.000000 0.000000 0.000000 0.000000 0.000000 -2.793359 -7.245782 -31.573177 0.380992 8.769712 0.768519 -1.560071 -1.571541 -0.635111 0.000000 0.000000 0.000000 4.113236 3.470063 -30.363896 -1.572883 -5.533734 -0.908517 2.379128 8.008953 -2.485128 0.000000 0.000000 0.000000
9.495170 70.011148 342.949965 -0.183516 0.669726 29.827285 0.802528 0.864204 -29.822543 -0.007637 0.825060 0.010514 3.153501 -2.772640 -1.153946 0.000000 0.000000 0.000000 -0.749072 2.463777 -0.292501 9.434177 -7.456579 0.912490 2.722066 -6.735183 4.343727 -12.029059 8.485655 -2.193362 0.000000 0.000000 0.000000 0.000000 0.000000 0.000000 2.952466 5.678605 0.549991 -0.868588 -5.518267 5.663587 -4.961254 -17.492061 -27.216831 8.559836 22.565321 27.057513 0.000000 0.000000 0.000000 0.000000 0.000000 0.000000 -3.036545 -8.288464 -30.386329 0.337944 10.503989 0.978642 -1.746278 -2.454693 -0.861075 0.000000 0.000000 0.000000 4.141957 3.687255 -29.052893 -1.668112 -5.902344 -0.974018 5.880298 5.536391 0.685618 0.000000 0.000000 0.000000
9.373526 70.135028 343.009060 -0.087154 0.870037 32.888896 0.807795 0.842739 -32.882641 -0.038173 0.755219 0.009661 4.173725 -2.719365 -1.474151 0.000000 0.000000 0.000000 -0.573195 2.962341 -0.386329 9.243001 -11.276923 2.814122 1.456078 -8.501730 5.747478 -6.607656 17.464221 -5.825242 0.000000 0.000000 0.000000 0.000000 0.000000 0.000000 3.965822 7.341035 0.575101 0.199836 -7.265211 7.346066 -11.971229 -18.368580 -35.706033 8.600846 24.581881 31.252802 0.000000 0.000000 0.000000 0.000000 0.000000 0.000000 -3.527107 -8.371517 -33.487084 0.254522 11.311365 1.147769 -1.883448 -3.213050 -1.051941 0.000000 0.000000 0.000000 3.869411 2.907623 -32.158011 -1.661696 -5.388802 -0.890548 4.063648 12.374473 -3.927228 0.000000 0.000000 0.000000
9.276902 70.207464 343.068486 0.064526 1.053186 38.846690 0.801099 0.750829 -38.838616 -0.047833 0.669813 0.012288 5.177791 -2.305937 -1.778897 0.000000 0.000000 0.000000 -0.703804 3.080405 -0.395549 8.771806 -15.369774 4.949597 -0.086015 -8.128636 5.870384 -1.564316 25.077017 -10.148596 0.000000 0.000000 0.000000 0.000000 0.000000 0.000000 4.934669 9.051478 0.554979 0.664597 -9.321578 8.003514 -16.515889 -16.839410 -39.129370 12.119081 23.934222 31.928259 0.000000 0.000000 0.000000 0.000000 0.000000 0.000000 -3.998460 -7.559751 -39.422527 0.160762 11.108475 1.259008 -1.996211 -3.737401 -1.188856 0.000000 0.000000 0.000000 3.073873 1.496389 -38.249990 -1.567318 -4.129244 -0.682319 3.128091 17.556669 -7.280541 0.000000 0.000000 0.000000
